<svg id="Ebene_1" data-name="Ebene 1" xmlns="http://www.w3.org/2000/svg" viewBox="0 0 750.44 682.81"><defs><style>.cls-1{fill:#fbb03b;}.cls-2{fill:#2e3a4d;}.cls-3{fill:#fcee21;}.cls-4{fill:#039be5;}.cls-5{fill:#fff;}</style></defs><title>weebo-labels</title><path class="cls-1" d="M500,721.5a221.24,221.24,0,0,1-220.89-205c-.41-5.42-.61-11-.61-16.49a221.5,221.5,0,1,1,443,0c0,5.93-.24,11.92-.71,17.81A221.38,221.38,0,0,1,500,721.5Z" transform="translate(-125.36 -159.16)"/><path class="cls-2" d="M500,287A212.78,212.78,0,0,1,713,500c0,5.7-.23,11.47-.69,17.14a213,213,0,0,1-424.73-1.29c-.38-5.21-.58-10.54-.58-15.85A212.87,212.87,0,0,1,500,287m0-17A229.77,229.77,0,0,0,270,500q0,8.64.63,17.11a230,230,0,0,0,458.63,1.38q.74-9.15.74-18.49A229.86,229.86,0,0,0,500,270Z" transform="translate(-125.36 -159.16)"/><path class="cls-3" d="M501,582.5A412.87,412.87,0,0,1,334.77,548a408.33,408.33,0,0,1-62.21-33.83,404.89,404.89,0,0,1-80.65-70.3c21.41-13.82,49.14-21.39,78.59-21.39,4.76,0,9.34.21,13.6.61l2.67.26.94-2.52A226.66,226.66,0,0,1,393.6,300l4.44-2.37-3.77-3.34c-6.57-5.83-9.77-13.94-9.77-24.79,0-43.56,51.59-79,115-79s115,35.44,115,79c0,10.67-3.09,18.68-9.44,24.49l-3.67,3.35,4.39,2.32A226.63,226.63,0,0,1,712.29,420.85l.94,2.52,2.67-.26c4.27-.4,8.84-.61,13.6-.61,30.12,0,58.3,7.87,79.85,22.22a405,405,0,0,1-82,70.84,408.71,408.71,0,0,1-61.81,33.19A412.9,412.9,0,0,1,501,582.5Z" transform="translate(-125.36 -159.16)"/><path class="cls-2" d="M499.5,194c30.24,0,58.57,8.14,79.79,22.91C599.74,231.15,611,249.82,611,269.5c0,9.64-2.72,16.8-8.3,21.9l-7.34,6.71,8.79,4.65A223.11,223.11,0,0,1,709,422.08l1.88,5,5.35-.51c4.15-.4,8.61-.6,13.26-.6,27.86,0,54,6.86,74.51,19.45a401.17,401.17,0,0,1-78.58,67.18,404.89,404.89,0,0,1-61.28,32.91,414.45,414.45,0,0,1-328-.73,404.46,404.46,0,0,1-61.68-33.54,401.42,401.42,0,0,1-77.2-66.6c20.33-12.08,46-18.67,73.21-18.67,4.65,0,9.11.2,13.26.6l5.35.51,1.88-5a223.11,223.11,0,0,1,104.25-119l8.89-4.74-7.54-6.68c-5.78-5.12-8.59-12.38-8.59-22.17,0-19.68,11.26-38.35,31.71-52.59C440.93,202.14,469.26,194,499.5,194m0-7C434.05,187,381,223.94,381,269.5c0,12.38,3.92,21.18,10.95,27.41A230.77,230.77,0,0,0,284.43,419.63c-4.29-.41-8.93-.63-13.93-.63-32.75,0-62.39,9.25-83.83,24.19a408.33,408.33,0,0,0,84,73.92,411.27,411.27,0,0,0,62.74,34.12,421.48,421.48,0,0,0,333.55.74,411.11,411.11,0,0,0,62.34-33.48,408.37,408.37,0,0,0,85.31-74.42C793,428.61,762.88,419,729.5,419c-5,0-9.64.22-13.93.63A230.82,230.82,0,0,0,607.42,296.57c6.8-6.21,10.58-14.9,10.58-27.07,0-45.56-53-82.5-118.5-82.5Z" transform="translate(-125.36 -159.16)"/><path class="cls-2" d="M500,287A212.78,212.78,0,0,1,713,500c0,5.7-.23,11.47-.69,17.14a213,213,0,0,1-424.73-1.29c-.38-5.21-.58-10.54-.58-15.85A212.87,212.87,0,0,1,500,287m0-17A229.77,229.77,0,0,0,270,500q0,8.64.63,17.11a230,230,0,0,0,458.63,1.38q.74-9.15.74-18.49A229.86,229.86,0,0,0,500,270Z" transform="translate(-125.36 -159.16)"/><path class="cls-2" d="M500.37,611.29a459.56,459.56,0,0,1-61.81-4c-8.09-1.1-15.92-2.43-23.28-4l3.44-16.64c7,1.44,14.43,2.71,22.13,3.76a462.16,462.16,0,0,0,118.44.08c7.64-1,15-2.27,22-3.69l3.4,16.65c-7.32,1.5-15.11,2.81-23.13,3.89A460.87,460.87,0,0,1,500.37,611.29Z" transform="translate(-125.36 -159.16)"/><path class="cls-4" d="M476.87,303.54c-35.38,0-65.76-1-79.27-13-5.53-4.9-8.1-11.59-8.1-21.06,0-19.17,11-37.41,31.06-51.36,21-14.6,49-22.64,78.94-22.64s58,8,78.94,22.64c20,14,31.06,32.19,31.06,51.36,0,9.32-2.48,15.93-7.81,20.79-13.38,12.26-44,13.25-79.58,13.25l-11,0-11.64,0-11.65,0Z" transform="translate(-125.36 -159.16)"/><path class="cls-2" d="M499.5,204c28.21,0,54.52,7.5,74.08,21.12C591.26,237.43,601,253.19,601,269.5c0,8.78-2.7,12.37-5.06,14.53-12,11-49.22,11-73.83,11l-10.95,0-11.66,0-11.68,0-10.95,0c-24.46,0-61.42,0-73.64-10.85C400.79,282,398,278.41,398,269.5c0-16.31,9.74-32.07,27.42-44.38C445,211.5,471.29,204,499.5,204m0-17C434.05,187,381,223.94,381,269.5c0,12.38,3.92,21.18,10.95,27.41,15.76,14,47.13,15.13,84.92,15.13,7.32,0,14.89,0,22.63,0s15.29,0,22.61,0c38.09,0,69.67-1.15,85.31-15.47,6.8-6.21,10.58-14.9,10.58-27.07,0-45.56-53-82.5-118.5-82.5Z" transform="translate(-125.36 -159.16)"/><path class="cls-4" d="M729.5,575.5a132.89,132.89,0,0,1-14.11-.7c-28.28-3-36.51-15.41-40.54-25.88-4.94-12.81-5.35-29.74-5.35-47.42,0-19.47.53-38,6.93-51.07,4.07-8.31,12.65-19.68,40-22.34,4.08-.39,8.5-.59,13.1-.59,30.58,0,59,8.34,80.11,23.47,19.28,13.84,29.89,31.78,29.89,50.53,0,19.17-11,37.41-31.06,51.36C787.47,567.46,759.43,575.5,729.5,575.5Z" transform="translate(-125.36 -159.16)"/><path class="cls-2" d="M729.5,436c28.4,0,55.79,8,75.16,21.88,17,12.2,26.34,27.69,26.34,43.62,0,16.31-9.74,32.07-27.42,44.38C784,559.5,757.71,567,729.5,567a125,125,0,0,1-13.23-.65c-23.54-2.51-30.13-11.76-33.49-20.5-4.41-11.43-4.78-27.5-4.78-44.35,0-18.43.46-35.92,6.06-47.33,3.45-7,10.34-15.39,33.13-17.62,3.84-.36,8-.55,12.31-.55m0-17c-5,0-9.64.22-13.93.63C663.6,424.7,661,459.42,661,501.5c0,19,.53,36.51,5.92,50.47,6.42,16.71,19.8,28.32,47.55,31.28a139.48,139.48,0,0,0,15,.75C795,584,848,547.06,848,501.5c0-22.32-12.73-42.57-33.43-57.43C793,428.61,762.88,419,729.5,419Z" transform="translate(-125.36 -159.16)"/><path class="cls-4" d="M270.5,575.5c-29.93,0-58-8-78.94-22.64-20-14-31.06-32.19-31.06-51.36s11-37.39,31-51.34c21-14.61,49-22.66,79-22.66,4.6,0,9,.2,13.12.59,27.3,2.66,35.88,14,39.95,22.34,6.4,13.05,6.93,31.6,6.93,51.07,0,17.39-.39,34-5.1,46.78-4,10.74-12.19,23.46-40.77,26.52A133.56,133.56,0,0,1,270.5,575.5Z" transform="translate(-125.36 -159.16)"/><path class="cls-2" d="M270.5,436c4.33,0,8.47.19,12.28.55,22.82,2.23,29.71,10.59,33.16,17.62,5.6,11.41,6.06,28.9,6.06,47.33,0,16.59-.35,32.42-4.58,43.84-3.47,9.41-10,18.47-33.73,21a123.7,123.7,0,0,1-13.19.65c-28.21,0-54.52-7.5-74.08-21.12C178.74,533.57,169,517.81,169,501.5s9.73-32.05,27.39-44.36C216,443.51,242.27,436,270.5,436m0-17c-32.75,0-62.39,9.25-83.83,24.19S152,478.73,152,501.5c0,45.56,53.05,82.5,118.5,82.5a139.48,139.48,0,0,0,15-.75c28.15-3,41.52-14.91,47.84-32,5.12-13.83,5.63-31.05,5.63-49.73,0-42.08-2.6-76.8-54.57-81.87-4.29-.41-8.93-.63-13.93-.63Z" transform="translate(-125.36 -159.16)"/><path class="cls-4" d="M500.5,804.5c-29.93,0-58-8-78.94-22.64-20-14-31.06-32.19-31.06-51.36,0-17.47,8.94-28.36,29-35.3,22.25-7.71,55-8.7,81-8.7s58.76,1,81,8.7c20,6.94,29,17.83,29,35.3,0,19.17-11,37.41-31.06,51.36C558.46,796.46,530.43,804.5,500.5,804.5Z" transform="translate(-125.36 -159.16)"/><path class="cls-2" d="M500.5,695c25.37,0,57.18.94,78.23,8.23C599.18,710.31,602,720.52,602,730.5c0,16.31-9.74,32.07-27.42,44.38C555,788.5,528.71,796,500.5,796s-54.52-7.5-74.08-21.12C408.74,762.57,399,746.81,399,730.5c0-10,2.82-20.19,23.27-27.27,21.05-7.29,52.86-8.23,78.23-8.23m0-17c-65.45,0-118.5,6.94-118.5,52.5S435.05,813,500.5,813,619,776.06,619,730.5,566,678,500.5,678Z" transform="translate(-125.36 -159.16)"/><circle class="cls-4" cx="375.64" cy="283.84" r="76"/><path class="cls-2" d="M501,527.5A84.5,84.5,0,1,1,585.5,443,84.6,84.6,0,0,1,501,527.5Zm0-152A67.5,67.5,0,1,0,568.5,443,67.58,67.58,0,0,0,501,375.5Z" transform="translate(-125.36 -159.16)"/><circle class="cls-2" cx="374.64" cy="283.84" r="47"/><circle class="cls-5" cx="350.64" cy="256.84" r="33"/><circle class="cls-5" cx="390.14" cy="296.34" r="19.5"/><path class="cls-1" d="M577,474c0,42-34,56-76,56s-76-14-76-56,34-6,76-6S577,432,577,474Z" transform="translate(-125.36 -159.16)"/><path class="cls-2" d="M501,533.5c-23.55,0-42.27-4.31-55.62-12.81C429.53,510.61,421.5,494.9,421.5,474c0-11,2.27-17.8,7.14-21.29,7.29-5.23,18.05-1.58,31.67,3,12.11,4.1,25.82,8.75,40.69,8.75s28.58-4.65,40.69-8.75c13.62-4.62,24.38-8.27,31.67-3,4.87,3.49,7.14,10.26,7.14,21.29,0,20.9-8,36.61-23.88,46.69C543.27,529.19,524.55,533.5,501,533.5Zm-63.44-76.35a8.27,8.27,0,0,0-4.85,1.25c-2.79,2-4.21,7.26-4.21,15.6,0,18.35,6.94,32.07,20.64,40.79,12.21,7.77,29.66,11.71,51.86,11.71s39.65-3.94,51.86-11.71c13.7-8.72,20.64-22.44,20.64-40.79,0-8.34-1.42-13.59-4.21-15.6-4.38-3.13-14.1.16-25.36,4-12,4.06-26.91,9.12-42.93,9.12s-30.94-5.06-42.93-9.12C450,459.63,442.65,457.15,437.56,457.15Z" transform="translate(-125.36 -159.16)"/><path d="M464.56,176.45c0,.09-.1.14-.29.14l-.68,0c-.3,0-.53,0-.68,0s-.39,0-.7,0l-.69,0c-.23,0-.52-.61-.87-1.85s-.72-1.85-1.08-1.87-1.09,0-2.36,0h-1.93c-1.34,0-2.11,0-2.29,0s-.61.65-.94,1.88-.58,1.84-.76,1.84h-2.75c-.16,0-.24-.05-.24-.17a2.34,2.34,0,0,1,.17-.55l3-8.18q.38-1,2.3-5.7c.22-.52.53-1.3.92-2.35.1-.31.21-.47.32-.47a5.67,5.67,0,0,1,.68.06,5.64,5.64,0,0,0,.69.06,5.41,5.41,0,0,0,.66-.06,4.32,4.32,0,0,1,.66-.07q.1,0,.3.45.3.69,2.89,7.36Q464.55,176.36,464.56,176.45Zm-5.69-6.74a20.68,20.68,0,0,0-1.1-3.18c-.71-1.82-1.21-3-1.5-3.59-1.68,4.3-2.53,6.55-2.53,6.76s.31.43.93.48c0,0,.43,0,1.2,0h1.25C458.29,170.2,458.87,170,458.87,169.71Z" transform="translate(-125.36 -159.16)"/><path d="M481.29,159.73c0,.94,0,2.35-.09,4.24s-.1,3.3-.1,4.25,0,2.21,0,4,0,3.1,0,4c0,.27-.1.4-.31.4l-.55,0a4.52,4.52,0,0,0-.55,0,5.36,5.36,0,0,0-.59,0l-.6,0c-.15,0-.32-.13-.53-.4q-2.62-3.56-8-10.6c-.56-.71-.88-1.11-1-1.19s-.12.16-.12.5q0,1.88.06,5.64c0,2.51.06,4.4.06,5.65,0,.27-.08.4-.24.4l-.64,0a6.13,6.13,0,0,0-.63,0,6.45,6.45,0,0,0-.65,0l-.66,0q-.3,0-.3-.24c0-.9,0-2.25.13-4s.12-3.15.12-4.06,0-2.76-.11-5.32q0-1-.12-3v-.16c0-.12.09-.19.29-.2.53,0,.95,0,1.25-.05a6.51,6.51,0,0,0,.65-.09,3.7,3.7,0,0,1,.63-.08c.07,0,.2.12.38.36q2.81,3.86,8.59,11.47a7.26,7.26,0,0,0,.48.55,21,21,0,0,0,.08-2.34c0-1.06,0-2.65-.11-4.76s-.12-3.7-.12-4.75c0-.27.08-.4.25-.4l.66,0c.3,0,.52,0,.67,0s.38,0,.69,0l.7,0C481.21,159.47,481.29,159.56,481.29,159.73Z" transform="translate(-125.36 -159.16)"/><path d="M499,176.45c0,.09-.1.14-.29.14l-.68,0c-.3,0-.52,0-.68,0s-.38,0-.69,0l-.7,0c-.23,0-.52-.61-.87-1.85s-.71-1.85-1.08-1.87-1.09,0-2.36,0h-1.92c-1.35,0-2.11,0-2.3,0s-.6.65-.93,1.88-.59,1.84-.77,1.84H483c-.17,0-.25-.05-.25-.17a2.34,2.34,0,0,1,.17-.55l3-8.18c.26-.66,1-2.56,2.3-5.7.23-.52.54-1.3.93-2.35.09-.31.2-.47.31-.47a5.64,5.64,0,0,1,.69.06,5.67,5.67,0,0,0,.68.06,5.54,5.54,0,0,0,.67-.06,4.11,4.11,0,0,1,.65-.07c.07,0,.17.15.31.45q.29.69,2.89,7.36Q499,176.36,499,176.45Zm-5.69-6.74a20,20,0,0,0-1.09-3.18c-.71-1.82-1.21-3-1.51-3.59q-2.52,6.45-2.52,6.76c0,.27.31.43.92.48,0,0,.44,0,1.2,0h1.26C492.71,170.2,493.29,170,493.29,169.71Z" transform="translate(-125.36 -159.16)"/><path d="M511.87,173.94a11.32,11.32,0,0,1-.18,2.43.41.41,0,0,1-.43.36c-.6,0-1.5,0-2.71-.11s-2.11-.1-2.71-.1-1.42,0-2.55,0l-2.55,0a.27.27,0,0,1-.3-.3q0-1.33.09-4c.06-1.79.09-3.13.09-4s0-2.36-.13-4.24-.13-3.3-.13-4.24c0-.18.1-.27.31-.27s.37,0,.67,0l.68,0,.69,0c.3,0,.53,0,.68,0s.29.08.29.23c0,.86,0,2.16-.1,3.9s-.09,3-.09,3.9v1.93c0,.86,0,1.51,0,1.93,0,1.81.08,2.71.22,2.71,3,0,5.27-.07,6.8-.22l.56-.09a4.27,4.27,0,0,1,.57-.07C511.79,173.71,511.87,173.79,511.87,173.94Z" transform="translate(-125.36 -159.16)"/><path d="M526.31,164.07c0,.46-.72,1.69-2.17,3.68-1,1.25-1.92,2.49-2.87,3.74a1.6,1.6,0,0,0-.35.95c0,.44,0,1.1.06,2s.07,1.53.07,2c0,.15-.1.22-.3.22h-2.91c-.16,0-.24-.12-.24-.35,0-.42,0-1.05.08-1.89s.09-1.48.09-1.91a1.58,1.58,0,0,0-.31-1l-2.62-3.42c-1-1.36-1.71-2.4-2.15-3.1a1.36,1.36,0,0,1-.22-.71c0-1,0-2.51,0-4.44,0-.22.09-.33.29-.33l.62,0a5.67,5.67,0,0,0,.61,0c.16,0,.41,0,.73,0l.75,0c.14,0,.22.06.22.19,0,.46,0,1.14-.08,2.05s-.07,1.6-.07,2,1.29,2.21,3.87,5.15c.61-.69,1.31-1.55,2.1-2.57a8.69,8.69,0,0,0,1.65-2.55c0-.44,0-1.11-.1-2s-.1-1.56-.1-2c0-.22.1-.33.28-.33l.68,0c.3,0,.52,0,.67,0s.39,0,.7,0l.7,0c.2,0,.29.13.29.4q0,.69,0,2.1C526.3,162.9,526.31,163.6,526.31,164.07Z" transform="translate(-125.36 -159.16)"/><path d="M537.74,160.7c-.16.27-.39.67-.67,1.22a10.7,10.7,0,0,1-.48,1.07.21.21,0,0,1-.19.11l-1.18-.43a6,6,0,0,0-2-.43c-1.5,0-2.25.66-2.25,2,0,.74.53,1.38,1.58,1.92,1.76.92,2.74,1.45,2.93,1.59a4.11,4.11,0,0,1,1.57,3.39,5.05,5.05,0,0,1-2.16,4.31,7.89,7.89,0,0,1-4.77,1.42c-.88,0-1.35-.1-1.42-.3s-.1-.76-.22-1.35c-.06-.25-.16-.61-.3-1.1a.52.52,0,0,1,0-.21c0-.11.06-.17.18-.17s.5,0,.9.06.71.06.91.06c2.52,0,3.79-.81,3.79-2.44a2.47,2.47,0,0,0-1.53-2.07c-1.86-1.06-2.8-1.61-2.85-1.65a4.1,4.1,0,0,1-1.53-3.35,4.66,4.66,0,0,1,1.49-3.63,5.35,5.35,0,0,1,3.75-1.32,8.94,8.94,0,0,1,2.25.32,6.35,6.35,0,0,1,2.08.85A.55.55,0,0,1,537.74,160.7Z" transform="translate(-125.36 -159.16)"/><path d="M551.19,174.14a2.13,2.13,0,0,1-.1.56c-.07.31-.11.5-.13.56,0,.29-.08.72-.17,1.28a.29.29,0,0,1-.32.22,2.75,2.75,0,0,1-.46,0,36.53,36.53,0,0,0-4.65-.22c-.6,0-1.49,0-2.69,0s-2.09.05-2.69.05c-.26,0-.4-.12-.4-.35q0-1.37.15-4.11c.11-1.83.16-3.2.16-4.11s0-2.65-.15-5.19c0-.65-.06-1.62-.13-2.91l0-.17c0-.19.1-.28.32-.28.57,0,1.43,0,2.56,0s2,.05,2.57.05,1.36,0,2.45-.05,1.9,0,2.44,0,.59.11.63.35a18,18,0,0,1,.25,2c0,.19-.09.28-.27.28-.69,0-1.74,0-3.14-.11s-2.46-.12-3.17-.12a1.91,1.91,0,0,0-1.26.27,2.1,2.1,0,0,0-.26,1.33v1.82a6.49,6.49,0,0,0,0,.87c.08.25.29.37.64.37h.83c1.59,0,3,0,4.3-.08.49,0,1.08-.06,1.75-.13.17,0,.26.06.26.22a12,12,0,0,1-.09,1.2,12,12,0,0,0-.09,1.21c0,.14-.13.22-.37.22l-1.09-.09c-.45,0-1.48-.07-3.07-.07-1.35,0-2.2,0-2.55.05a.54.54,0,0,0-.56.51c0-.06,0,.26,0,.94v1.81c0,.84.13,1.37.39,1.58a2.67,2.67,0,0,0,1.52.26H546c.57,0,2.16-.1,4.79-.29l.19,0C551.11,173.82,551.19,173.92,551.19,174.14Z" transform="translate(-125.36 -159.16)"/><path d="M140.44,560.24a2.2,2.2,0,0,1,.56.1l.56.13c.29,0,.72.08,1.28.17a.29.29,0,0,1,.22.32,4.6,4.6,0,0,1-.05.46,36.82,36.82,0,0,0-.22,4.66c0,.59,0,1.48.05,2.68s0,2.09,0,2.69c0,.26-.12.4-.35.4q-1.38,0-4.11-.15c-1.83-.1-3.2-.16-4.11-.16s-2.66.05-5.19.15c-.65,0-1.62.06-2.92.14H126c-.18,0-.28-.1-.28-.32,0-.57,0-1.42,0-2.56s0-2,0-2.57,0-1.36,0-2.44,0-1.91,0-2.45c0-.38.12-.59.36-.62a19.16,19.16,0,0,1,2-.26c.19,0,.28.09.28.27,0,.69,0,1.74-.12,3.14s-.11,2.46-.11,3.17a1.9,1.9,0,0,0,.27,1.26,2.1,2.1,0,0,0,1.33.26h1.82a6.29,6.29,0,0,0,.86,0c.26-.07.38-.29.38-.64,0-.09,0-.23,0-.41v-.42q0-2.38-.09-4.29c0-.5,0-1.09-.12-1.76,0-.17.06-.26.22-.26a12,12,0,0,1,1.2.09c.53.06.94.1,1.21.1s.22.12.22.36,0,.46-.09,1.09c-.05.45-.07,1.48-.07,3.07,0,1.35,0,2.2,0,2.56a.55.55,0,0,0,.51.56,7.3,7.3,0,0,1,.94,0h1.8q1.28,0,1.59-.39a2.76,2.76,0,0,0,.26-1.52v-1.35c0-.56-.1-2.16-.3-4.79v-.19C140.11,560.32,140.22,560.24,140.44,560.24Z" transform="translate(-125.36 -159.16)"/><path d="M131.87,544.9a28.61,28.61,0,0,1,5,2.39l5.64,3c.23.12.35.25.35.4v2.45c0,.12-.12.23-.35.34l-5.47,2.91a33.58,33.58,0,0,1-5.06,2.45c-.64,0-1.61,0-2.9-.06s-2.25-.07-2.9-.07c-.3,0-.45-.1-.45-.29s0-.38,0-.68,0-.52,0-.68,0-.37,0-.67,0-.53,0-.67.08-.28.24-.28c.65,0,1.65,0,3,.13s2.33.12,3,.12,3-1.26,7.4-3.78c-1.14-.67-2.44-1.39-3.92-2.17a15.89,15.89,0,0,0-3.76-1.7c-.63,0-1.58,0-2.84.06s-2.21.06-2.83.06c-.17,0-.25-.09-.25-.27s0-.38,0-.68,0-.53,0-.67,0-.37,0-.67,0-.52,0-.66a.28.28,0,0,1,.24-.31c-.06,0,.09,0,.46,0l2.7,0C130.36,544.9,131.26,544.9,131.87,544.9Z" transform="translate(-125.36 -159.16)"/><path d="M142.74,527.77c.1,0,.15.1.15.29s0,.38,0,.68,0,.52,0,.68,0,.38,0,.69,0,.55,0,.7-.62.52-1.85.87-1.86.72-1.87,1.08,0,1.09,0,2.36v1.93c0,1.34,0,2.11,0,2.29s.65.61,1.88.94,1.84.58,1.84.76v2.75c0,.16-.06.24-.17.24a2.21,2.21,0,0,1-.55-.17l-8.18-3q-1-.37-5.7-2.3c-.52-.22-1.31-.53-2.36-.92-.3-.1-.46-.21-.46-.32a5.8,5.8,0,0,1,.06-.69,5.51,5.51,0,0,0,.06-.68,5.25,5.25,0,0,0-.06-.66,4.32,4.32,0,0,1-.07-.66q0-.1.45-.3c.46-.2,2.91-1.16,7.36-2.9Q142.66,527.78,142.74,527.77ZM136,533.46a19.92,19.92,0,0,0-3.17,1.1c-1.82.71-3,1.21-3.59,1.5,4.3,1.68,6.55,2.53,6.75,2.53s.44-.31.49-.93c0,0,0-.43,0-1.2V535.2C136.49,534,136.33,533.46,136,533.46Z" transform="translate(-125.36 -159.16)"/><path d="M140.24,514.88a11.32,11.32,0,0,1,2.43.18.4.4,0,0,1,.35.43c0,.6,0,1.51-.1,2.71s-.1,2.11-.1,2.71,0,1.42,0,2.55,0,2,0,2.55a.27.27,0,0,1-.31.31c-.88,0-2.22,0-4-.09s-3.13-.1-4-.1-2.36,0-4.24.13-3.3.13-4.24.13q-.27,0-.27-.3c0-.15,0-.38,0-.68s0-.53,0-.68,0-.37,0-.68,0-.54,0-.69.08-.29.23-.29c.86,0,2.16,0,3.89.1s3,.1,3.91.1h3.86c1.8,0,2.71-.07,2.71-.22,0-3-.08-5.27-.22-6.8,0-.07,0-.26-.09-.56a3,3,0,0,1-.07-.56C140,515,140.09,514.88,140.24,514.88Z" transform="translate(-125.36 -159.16)"/><path d="M126,499.47c1,0,2.36,0,4.24.12s3.3.12,4.25.12l1.38,0h1.37a8.94,8.94,0,0,1,3.54.48,4,4,0,0,1,2.06,2.84,16.29,16.29,0,0,1,.32,3.65q0,4.28-1.41,5.6c-.73.69-2.2,1-4.4,1h-2.86q-1.44,0-5.31.12c-.67,0-1.67,0-3,.11H126c-.17,0-.26-.11-.26-.32s0-.78,0-1.35,0-1.11,0-1.35.07-.28.22-.28c1.23,0,3.09,0,5.58.08s4.34.08,5.57.08a3.49,3.49,0,0,0,2.85-.94,4.85,4.85,0,0,0,.66-3,5.38,5.38,0,0,0-.54-2.8,2.75,2.75,0,0,0-2.51-1.05c-1.29,0-3.22,0-5.8.06s-4.5.06-5.79.06c-.13,0-.21-.11-.24-.35a2.91,2.91,0,0,1,0-.73c0-.38,0-.56,0-.54,0-.15,0-.37,0-.66s0-.52,0-.67S125.85,499.47,126,499.47Z" transform="translate(-125.36 -159.16)"/><path d="M142.74,481.86c.1,0,.15.1.15.29s0,.38,0,.68,0,.52,0,.68,0,.38,0,.69,0,.54,0,.7-.62.52-1.85.87-1.86.72-1.87,1.08,0,1.09,0,2.36v1.93c0,1.34,0,2.1,0,2.29s.65.61,1.88.94,1.84.58,1.84.76v2.75c0,.16-.06.24-.17.24a2.21,2.21,0,0,1-.55-.17L134,495q-1-.37-5.7-2.3c-.52-.23-1.31-.53-2.36-.93-.3-.09-.46-.2-.46-.31a5.64,5.64,0,0,1,.06-.69,5.67,5.67,0,0,0,.06-.68,5.54,5.54,0,0,0-.06-.67,4.11,4.11,0,0,1-.07-.65q0-.11.45-.3c.46-.2,2.91-1.16,7.36-2.9Q142.66,481.86,142.74,481.86ZM136,487.55a19.92,19.92,0,0,0-3.17,1.1c-1.82.7-3,1.2-3.59,1.5q6.45,2.52,6.75,2.52c.28,0,.44-.3.49-.92,0,0,0-.43,0-1.2v-1.26C136.49,488.13,136.33,487.55,136,487.55Z" transform="translate(-125.36 -159.16)"/><path d="M128.07,469.13c.21,0,.32.07.32.22s0,1.66-.15,4.32q3.72.1,6,.11c.94,0,2.34,0,4.21-.11s3.28-.1,4.21-.1c.17,0,.26.12.26.35s0,.37,0,.68,0,.53,0,.68,0,.37,0,.67,0,.53,0,.67a.27.27,0,0,1-.31.31c-.92,0-2.32,0-4.18-.12s-3.25-.11-4.19-.11q-2.18,0-6,.13c.13,2.1.2,3.64.2,4.61,0,.1,0,.15-.13.15a3,3,0,0,1-.63-.11l-.64-.16a8.24,8.24,0,0,1-1.18-.17.22.22,0,0,1-.16-.21v-.14c.18-2.88.26-4.78.26-5.7s-.06-2.15-.18-4a13,13,0,0,0-.12-1.57c0-.21.07-.33.22-.35a10.9,10.9,0,0,0,1.18,0,3.74,3.74,0,0,0,.49,0Z" transform="translate(-125.36 -159.16)"/><path d="M142.63,464.29c.17,0,.26.12.26.36s0,.37,0,.67,0,.52,0,.67,0,.38,0,.68,0,.53,0,.68-.09.3-.28.3c-.93,0-2.33,0-4.19-.13s-3.27-.13-4.21-.13-2.26.05-4.07.13-3.17.13-4.07.13c-.2,0-.31-.09-.31-.28s0-.39,0-.71,0-.56,0-.72,0-.36,0-.66,0-.51,0-.66.08-.31.25-.31c.91,0,2.28,0,4.1.09s3.19.1,4.1.1,2.34,0,4.21-.1S141.7,464.29,142.63,464.29Z" transform="translate(-125.36 -159.16)"/><path d="M134.32,445.61a9.1,9.1,0,0,1,6.24,2.31,8,8,0,0,1,0,12,9.52,9.52,0,0,1-12.49,0,7.94,7.94,0,0,1,0-12A9,9,0,0,1,134.32,445.61Zm0,2.94a6.23,6.23,0,0,0-4.16,1.49,4.89,4.89,0,0,0-1.88,3.92,4.82,4.82,0,0,0,1.91,3.88,6.67,6.67,0,0,0,8.33,0,4.82,4.82,0,0,0,1.91-3.88,4.91,4.91,0,0,0-1.91-3.94A6.38,6.38,0,0,0,134.28,448.55Z" transform="translate(-125.36 -159.16)"/><path d="M126,428.25c.94,0,2.35,0,4.24.09s3.3.1,4.25.1l4,0,4,0c.27,0,.4.11.4.31a4.79,4.79,0,0,1,0,.55c0,.24,0,.43,0,.55s0,.33,0,.6a5.36,5.36,0,0,1,0,.59c0,.15-.13.33-.4.53q-3.56,2.64-10.6,8c-.71.56-1.11.88-1.2,1s.17.12.51.12q1.88,0,5.64-.06c2.51,0,4.39-.06,5.65-.06.27,0,.4.08.4.24s0,.35,0,.64,0,.49,0,.63,0,.37,0,.66a6.29,6.29,0,0,1,0,.65q0,.3-.24.3-1.35,0-4.05-.12c-1.8-.09-3.16-.13-4.06-.13s-2.76,0-5.32.11c-.67,0-1.67.05-3,.12h-.15c-.13,0-.19-.09-.2-.29,0-.53,0-.95,0-1.25,0-.11,0-.33-.1-.64a4.89,4.89,0,0,1-.07-.64c0-.07.12-.2.36-.38q3.85-2.81,11.47-8.59c.21-.17.39-.33.55-.48a21,21,0,0,0-2.34-.08c-1.06,0-2.65,0-4.77.11s-3.69.12-4.74.12c-.27,0-.41-.08-.41-.24s0-.37,0-.67,0-.52,0-.67,0-.38,0-.69,0-.54,0-.7S125.85,428.25,126,428.25Z" transform="translate(-125.36 -159.16)"/><path d="M874.16,428.69c-.26-.17-.67-.39-1.22-.67a10.7,10.7,0,0,1-1.07-.48.24.24,0,0,1-.11-.2s.14-.38.43-1.17a6.07,6.07,0,0,0,.44-2q0-2.25-2-2.25c-.73,0-1.37.53-1.92,1.58-.92,1.76-1.45,2.74-1.58,2.92a4.13,4.13,0,0,1-3.4,1.58,5.05,5.05,0,0,1-4.31-2.16,7.92,7.92,0,0,1-1.41-4.77c0-.88.1-1.36.29-1.42s.76-.11,1.35-.22l1.1-.3a.59.59,0,0,1,.21,0c.11,0,.17.06.17.18s0,.5-.06.9-.06.71-.06.91q0,3.78,2.44,3.78a2.5,2.5,0,0,0,2.08-1.52c1.05-1.86,1.6-2.81,1.64-2.85a4.11,4.11,0,0,1,3.35-1.54,4.72,4.72,0,0,1,3.64,1.49,5.39,5.39,0,0,1,1.32,3.76,9.56,9.56,0,0,1-.32,2.25,6.18,6.18,0,0,1-.86,2.07A.36.36,0,0,1,874.16,428.69Z" transform="translate(-125.36 -159.16)"/><path d="M869.07,444.41a6.62,6.62,0,0,1-4.59-1.55,5.67,5.67,0,0,1-1.77-4.43c0-.47,0-1.17.06-2.11s.05-1.64.05-2.12c0-.26-.16-.39-.5-.39s-1.07,0-1.94.08-1.51.08-1.94.08c-.14,0-.21-.08-.21-.23a7.25,7.25,0,0,1,.06-.77,7,7,0,0,0,.05-.78c0-.15,0-.36,0-.65a6.13,6.13,0,0,1,0-.63c0-.2.13-.31.38-.31q1.33,0,4,.12c1.79.08,3.13.11,4,.11q3.81,0,8.18-.28h.19c.17,0,.26.1.26.32,0,.44,0,1.1,0,2s0,1.55,0,2,0,1,.05,1.72,0,1.34,0,1.72a5.82,5.82,0,0,1-1.83,4.43A6.31,6.31,0,0,1,869.07,444.41Zm-.18-3.08a4.21,4.21,0,0,0,2.93-1,3.57,3.57,0,0,0,1.15-2.83c0-.37,0-1-.1-2a7.14,7.14,0,0,0-.19-1.7c-.1-.05-1.5-.08-4.2-.08l-1.54,0-1.54,0c-.07,0-.13.09-.17.27a27.74,27.74,0,0,0-.14,3.72,3.38,3.38,0,0,0,1.07,2.66A3.94,3.94,0,0,0,868.89,441.33Z" transform="translate(-125.36 -159.16)"/><path d="M860.72,457.74a2.2,2.2,0,0,1-.56-.1l-.56-.13c-.29,0-.72-.08-1.28-.17a.29.29,0,0,1-.22-.32,4.6,4.6,0,0,1,0-.46,36.82,36.82,0,0,0,.22-4.66c0-.59,0-1.48,0-2.68s-.05-2.09-.05-2.69c0-.27.12-.4.36-.4.91,0,2.28.05,4.1.15s3.2.16,4.11.16,2.66-.05,5.19-.15c.65,0,1.62-.06,2.92-.13l.17,0c.18,0,.28.1.28.32,0,.57,0,1.42,0,2.56s-.05,2-.05,2.57,0,1.36.05,2.45,0,1.9,0,2.44c0,.38-.12.59-.36.62a16.59,16.59,0,0,1-2,.26c-.19,0-.28-.09-.28-.27,0-.69,0-1.74.12-3.14s.11-2.46.11-3.17a1.9,1.9,0,0,0-.27-1.26,2.1,2.1,0,0,0-1.33-.26h-1.82a6.29,6.29,0,0,0-.86,0c-.25.08-.38.29-.38.64,0,.09,0,.23,0,.41v.42q0,2.39.09,4.29c0,.5.05,1.09.12,1.76,0,.17-.06.26-.22.26a12,12,0,0,1-1.2-.09c-.53-.06-.94-.1-1.21-.1s-.21-.12-.21-.36,0-.46.08-1.09c.05-.45.07-1.48.07-3.07,0-1.35,0-2.2-.05-2.56a.55.55,0,0,0-.51-.56,7.3,7.3,0,0,1-.94,0h-1.8q-1.27,0-1.59.39a2.76,2.76,0,0,0-.26,1.52v1.34q0,.86.3,4.8v.19C861.05,457.66,860.94,457.74,860.72,457.74Z" transform="translate(-125.36 -159.16)"/><path d="M861.07,470.28a9,9,0,0,1-1.31-.16,7.83,7.83,0,0,0-1.32-.16c-.18,0-.27-.1-.27-.29,0-.49,0-1.22.05-2.18s0-1.69,0-2.18v-5.8c0-.23.08-.36.25-.4a11.64,11.64,0,0,1,2-.27q.13,0,6,3.72a68,68,0,0,0,6.13,3.71c.09,0,.14-.1.14-.3v-6.51a.21.21,0,0,1,.24-.24c.07,0,.44.06,1.11.17l1.18.22c.11,0,.17.13.17.29q0,.48-.09,1.41c-.06.62-.09,1.09-.09,1.4v6.86a.26.26,0,0,1-.2.27,7.93,7.93,0,0,1-1.82.18s-2.1-1.29-6.14-3.86-6.13-3.87-6.25-3.88a.26.26,0,0,0-.09.23c0,2.36,0,4.17.15,5.42,0,.16.06.53.13,1.1a7.74,7.74,0,0,1,.1,1.09C861.2,470.22,861.16,470.28,861.07,470.28Z" transform="translate(-125.36 -159.16)"/><path d="M858.53,475.61c-.17,0-.26-.12-.26-.35s0-.37,0-.68,0-.52,0-.67,0-.38,0-.68,0-.52,0-.67.09-.31.28-.31c.93,0,2.33.05,4.19.13s3.27.13,4.21.13,2.26,0,4.07-.13,3.17-.13,4.07-.13c.2,0,.31.1.31.28s0,.39,0,.71,0,.56,0,.72,0,.37,0,.66,0,.51,0,.66-.08.32-.25.32c-.91,0-2.27,0-4.1-.1s-3.19-.1-4.1-.1-2.34,0-4.21.11S859.46,475.61,858.53,475.61Z" transform="translate(-125.36 -159.16)"/><path d="M872.89,489.91c-.15,0-.23-.09-.23-.26,0-.64,0-1.68.11-3.13s.09-2.39.08-3.12l0-.89a8.16,8.16,0,0,0,0-.91c-.07-.16-.32-.24-.77-.24h-2.94c-.56,0-.83.12-.83.35,0,.79,0,2,.11,3.57s.11,2.79.11,3.58c0,.17-.07.25-.2.25l-.62,0-.61,0-.67,0-.66,0c-.1,0-.15-.09-.15-.26,0-.56,0-1.41,0-2.55s0-2,0-2.57c0-1.05,0-1.65,0-1.79q-.06-.54-.45-.54c-.73,0-1.83,0-3.29.06s-2.57.06-3.3.06c-.24,0-.37-.1-.37-.3a6.37,6.37,0,0,1,.06-.72,6,6,0,0,0,.05-.74c0-.14,0-.35,0-.64a6.13,6.13,0,0,1,0-.63c0-.2.09-.31.27-.31q1.35,0,4.08.12c1.81.08,3.17.12,4.07.12s3.57-.09,8.18-.26H875c.17,0,.27.09.29.31,0,.06,0,.58,0,1.54,0,1.28,0,2.47,0,3.56,0,1.47.09,3.35.24,5.62,0,.32-.11.49-.4.53a8.35,8.35,0,0,0-1,.05A10.31,10.31,0,0,1,872.89,489.91Z" transform="translate(-125.36 -159.16)"/><path d="M858.53,494.86c-.17,0-.26-.12-.26-.35s0-.37,0-.67,0-.53,0-.67,0-.39,0-.69,0-.52,0-.67.09-.31.28-.31c.93,0,2.33.05,4.19.13s3.27.13,4.21.13,2.26,0,4.07-.13,3.17-.13,4.07-.13c.2,0,.31.1.31.29s0,.39,0,.7,0,.56,0,.72,0,.37,0,.66,0,.52,0,.66-.08.32-.25.32c-.91,0-2.27,0-4.1-.1s-3.19-.1-4.1-.1-2.34,0-4.21.11S859.46,494.86,858.53,494.86Z" transform="translate(-125.36 -159.16)"/><path d="M858.84,510.94q-.57,0-.57-.36v-2.8c0-.24.87-.85,2.6-1.85,1.47-.84,2.52-1.39,3.17-1.67s1-.43,1.05-.48a1.1,1.1,0,0,0,.65-.85c0-.1,0-.37,0-.82,0-1-.12-1.54-.37-1.54-.75,0-1.87,0-3.36.08s-2.61.08-3.35.08c-.26,0-.4-.1-.4-.3s0-.39,0-.7,0-.54,0-.69,0-.37,0-.66a6.45,6.45,0,0,1,0-.65c0-.2.09-.31.28-.31.9,0,2.24.05,4,.13s3.13.13,4,.13,2.36,0,4.26-.13,3.3-.13,4.25-.13c.18,0,.27.11.27.31s0,.37,0,.67,0,.53,0,.68,0,.37,0,.66,0,.52,0,.66-.08.28-.22.28c-.69,0-1.74,0-3.13-.06s-2.43-.07-3.13-.07a1.75,1.75,0,0,0-.6.06c-.15.07-.22.23-.22.5a5.51,5.51,0,0,0,.88,3.47,7.19,7.19,0,0,0,2.87,1.78l3.27,1.22a.53.53,0,0,1,.28.38,9.19,9.19,0,0,1,.05,1.29c0,.9-.13,1.35-.38,1.35a14.41,14.41,0,0,1-2-.57,14.18,14.18,0,0,1-3.61-1.7,12.11,12.11,0,0,1-2.14-1.85.69.69,0,0,0-.46-.29,12.93,12.93,0,0,0-2.19,1,23.8,23.8,0,0,0-2.72,1.55c-.63.51-1.59,1.23-2.89,2.15A.5.5,0,0,1,858.84,510.94Z" transform="translate(-125.36 -159.16)"/><path d="M858.42,527.43c-.1,0-.15-.1-.15-.29s0-.38,0-.68,0-.52,0-.68,0-.39,0-.7,0-.54,0-.69.62-.52,1.85-.87,1.86-.72,1.87-1.08,0-1.09,0-2.36v-1.93c0-1.34,0-2.11,0-2.29s-.65-.61-1.88-.94-1.84-.58-1.84-.76v-2.75c0-.16.06-.24.17-.24a2.21,2.21,0,0,1,.55.17l8.18,3q1,.38,5.7,2.3c.52.22,1.31.53,2.36.92.31.1.46.21.46.32a5.51,5.51,0,0,1-.06.68,5.8,5.8,0,0,0-.06.69,5.41,5.41,0,0,0,.06.66,4.32,4.32,0,0,1,.07.66q0,.11-.45.3-.69.3-7.36,2.89Q858.5,527.43,858.42,527.43Zm6.74-5.69a21.19,21.19,0,0,0,3.17-1.1c1.82-.71,3-1.21,3.59-1.5-4.3-1.68-6.55-2.53-6.75-2.53s-.44.31-.49.93c0,0,0,.43,0,1.2V520C864.67,521.16,864.83,521.74,865.16,521.74Z" transform="translate(-125.36 -159.16)"/><path d="M873.09,540.16c-.21,0-.32-.07-.32-.22s.05-1.67.15-4.32q-3.72-.11-6-.11c-.94,0-2.34,0-4.21.1s-3.28.11-4.21.11c-.17,0-.26-.12-.26-.36s0-.37,0-.67,0-.53,0-.68,0-.37,0-.67,0-.53,0-.67a.27.27,0,0,1,.31-.31c.92,0,2.32,0,4.18.12s3.25.11,4.19.11q2.17,0,6-.13c-.13-2.1-.2-3.64-.2-4.62,0-.09,0-.14.13-.14a2.42,2.42,0,0,1,.63.11l.64.16a8.24,8.24,0,0,1,1.18.17.21.21,0,0,1,.16.2v.15c-.17,2.88-.26,4.78-.26,5.7s.06,2.15.18,4a10.26,10.26,0,0,0,.13,1.58c0,.21-.08.33-.22.35a11.26,11.26,0,0,0-1.19,0,3.87,3.87,0,0,0-.49,0Z" transform="translate(-125.36 -159.16)"/><path d="M858.53,545c-.17,0-.26-.12-.26-.36s0-.37,0-.67,0-.53,0-.67,0-.38,0-.69,0-.52,0-.67.09-.3.28-.3c.93,0,2.33,0,4.19.13s3.27.12,4.21.12,2.26,0,4.07-.12,3.17-.13,4.07-.13c.2,0,.31.09.31.28s0,.39,0,.71,0,.55,0,.72,0,.36,0,.66,0,.51,0,.66-.08.31-.25.31c-.91,0-2.27,0-4.1-.1s-3.19-.09-4.1-.09-2.34,0-4.21.1S859.46,545,858.53,545Z" transform="translate(-125.36 -159.16)"/><path d="M866.84,563.68a9.06,9.06,0,0,1-6.24-2.32,8,8,0,0,1,0-12,9.52,9.52,0,0,1,12.49,0,7.94,7.94,0,0,1,0,12A9,9,0,0,1,866.84,563.68Zm0-2.94a6.23,6.23,0,0,0,4.16-1.49,4.9,4.9,0,0,0,1.88-3.92,4.81,4.81,0,0,0-1.9-3.88,6.69,6.69,0,0,0-8.34,0,4.82,4.82,0,0,0-1.91,3.88,4.88,4.88,0,0,0,1.91,3.93A6.36,6.36,0,0,0,866.88,560.74Z" transform="translate(-125.36 -159.16)"/><path d="M875.13,581c-.94,0-2.35,0-4.24-.1s-3.3-.09-4.25-.09-2.21,0-4,0-3.1,0-4,0c-.26,0-.4-.1-.4-.3a4.65,4.65,0,0,1,0-.55c0-.24,0-.43,0-.55s0-.33,0-.6a5.67,5.67,0,0,1,0-.6c0-.14.14-.32.4-.52q3.55-2.64,10.6-8c.72-.55,1.11-.87,1.2-1s-.17-.12-.51-.12q-1.87,0-5.64.06c-2.51,0-4.39.06-5.65.06-.26,0-.4-.08-.4-.24s0-.35,0-.64,0-.5,0-.63,0-.37,0-.66a6.45,6.45,0,0,1,0-.65c0-.2.08-.31.25-.31.89,0,2.24.05,4,.13s3.16.13,4.06.13,2.76,0,5.32-.11l3-.12h.15c.13,0,.19.09.2.29,0,.53,0,.94.05,1.25,0,.11,0,.32.1.64a3.6,3.6,0,0,1,.07.64c0,.07-.12.2-.35.38q-3.87,2.8-11.48,8.59l-.55.47a18.06,18.06,0,0,0,2.35.09c1,0,2.64,0,4.76-.12s3.7-.11,4.74-.11c.27,0,.41.08.41.24s0,.37,0,.67,0,.52,0,.66,0,.39,0,.7,0,.54,0,.69S875.31,581,875.13,581Z" transform="translate(-125.36 -159.16)"/><path d="M428.56,841.29a.27.27,0,0,1-.3.3l-.67,0c-.29,0-.51,0-.66,0s-.37,0-.67,0l-.67,0c-.21,0-.31-.13-.31-.4,0-1,0-2.58.1-4.65s.1-3.62.1-4.65c0-.16,0-.23-.1-.23a.19.19,0,0,0-.17.13c-.42.89-1.4,3.25-2.94,7.1-.26.74-.62,1.67-1.09,2.78-.06.1-.35.15-.88.15-.76,0-1.19-.07-1.27-.2-.28-.66-.67-1.59-1.18-2.77q-1-2.43-3.12-7.21a.44.44,0,0,0-.15-.17.31.31,0,0,0-.1.27c0,1,0,2.63,0,4.72s.06,3.68.06,4.73c0,.27-.1.4-.31.4l-.63,0c-.29,0-.5,0-.64,0s-.36,0-.65,0l-.65,0c-.21,0-.31-.07-.31-.23,0-.9,0-2.26.13-4.06s.13-3.15.13-4.06,0-2.34-.13-4.21-.13-3.29-.13-4.22c0-.16.09-.25.28-.27a20.18,20.18,0,0,1,2.5-.22c.09,0,.2.17.35.5q3,6.49,5.07,11.6a4.41,4.41,0,0,0,.6,1.19c.08,0,.26-.32.53-1q1.65-4,4.6-11.75c.12-.31.26-.47.4-.47s.7,0,1.25.05,1,0,1.25,0,.31.1.31.3c0,.93,0,2.34-.09,4.22s-.09,3.28-.09,4.21,0,2.24.1,4S428.56,840.4,428.56,841.29Z" transform="translate(-125.36 -159.16)"/><path d="M447.28,833a9.11,9.11,0,0,1-2.32,6.24,8,8,0,0,1-12,0,9.52,9.52,0,0,1,0-12.48,7.94,7.94,0,0,1,12,0A9.06,9.06,0,0,1,447.28,833Zm-2.94,0a6.29,6.29,0,0,0-1.49-4.17,4.91,4.91,0,0,0-3.92-1.88,4.8,4.8,0,0,0-3.88,1.91,6.65,6.65,0,0,0,0,8.34,4.79,4.79,0,0,0,3.88,1.9,4.87,4.87,0,0,0,3.93-1.9A6.41,6.41,0,0,0,444.34,833Z" transform="translate(-125.36 -159.16)"/><path d="M464.31,832.94a9.32,9.32,0,0,1-2,5.93,6.58,6.58,0,0,1-5.44,2.72c-.42,0-1.06,0-1.91-.05s-1.49,0-1.91,0-1,0-1.73,0-1.34.05-1.73.05a.27.27,0,0,1-.3-.3c0-.89,0-2.23.1-4s.11-3.13.11-4,0-2.36-.1-4.26-.1-3.31-.1-4.26c0-.17.11-.25.32-.25h5.26c2.82,0,4.93.53,6.31,1.59a7.59,7.59,0,0,1,2.31,3.09A9.65,9.65,0,0,1,464.31,832.94Zm-3,0a6.13,6.13,0,0,0-1.51-4.3,5.34,5.34,0,0,0-4.17-1.72,9.63,9.63,0,0,1-1.75,0c-.95.05-1.42.23-1.42.53,0,.63,0,1.56-.05,2.81s0,2.19,0,2.82,0,1.54,0,2.78.05,2.17.05,2.78c0,.31.48.49,1.46.54-.13,0,.46,0,1.78,0a7.12,7.12,0,0,0,2.24-.29,4.36,4.36,0,0,0,1.84-1.36A6.91,6.91,0,0,0,461.32,832.94Z" transform="translate(-125.36 -159.16)"/><path d="M477.84,839.14a2.51,2.51,0,0,1-.09.56c-.08.31-.12.5-.14.56,0,.29-.08.72-.17,1.28a.29.29,0,0,1-.32.22,2.85,2.85,0,0,1-.46,0,36.53,36.53,0,0,0-4.65-.22c-.59,0-1.49,0-2.69,0s-2.09.05-2.68.05c-.27,0-.4-.12-.4-.35q0-1.37.15-4.11t.15-4.11q0-1.38-.15-5.19c0-.65-.06-1.62-.13-2.91v-.17c0-.19.1-.28.31-.28.57,0,1.43,0,2.57,0s2,0,2.56,0,1.36,0,2.45,0,1.9,0,2.45,0c.38,0,.59.11.62.35a19.16,19.16,0,0,1,.26,2c0,.19-.09.28-.27.28-.69,0-1.74,0-3.15-.11s-2.46-.12-3.16-.12a2,2,0,0,0-1.27.27,2.17,2.17,0,0,0-.26,1.33v1.82a4.55,4.55,0,0,0,0,.87c.07.25.28.37.63.37h.83c1.6,0,3,0,4.3-.08.5,0,1.08-.06,1.76-.13.17,0,.25.06.25.22a12,12,0,0,1-.09,1.2,12,12,0,0,0-.09,1.21c0,.14-.12.22-.37.22l-1.08-.09c-.46-.05-1.48-.07-3.08-.07-1.34,0-2.19,0-2.55,0a.54.54,0,0,0-.56.51c0-.06,0,.26,0,.94v1.81c0,.84.13,1.37.39,1.58a2.69,2.69,0,0,0,1.53.26h1.34c.57,0,2.17-.1,4.8-.29l.18,0C477.76,838.82,477.84,838.92,477.84,839.14Z" transform="translate(-125.36 -159.16)"/><path d="M491.25,838.94a10.54,10.54,0,0,1-.19,2.43.4.4,0,0,1-.42.36c-.6,0-1.51,0-2.71-.11s-2.11-.1-2.71-.1-1.42,0-2.55,0l-2.55,0c-.21,0-.31-.1-.31-.3q0-1.34.09-4c.06-1.79.09-3.13.09-4s0-2.36-.13-4.24-.12-3.3-.12-4.24q0-.27.3-.27c.15,0,.37,0,.67,0l.69,0,.68,0c.31,0,.54,0,.68,0s.3.08.3.23c0,.86,0,2.16-.1,3.9s-.1,3-.1,3.9v1.93c0,.86,0,1.51,0,1.93,0,1.81.07,2.71.22,2.71q4.5,0,6.8-.22l.56-.08a3.08,3.08,0,0,1,.56-.08C491.16,838.71,491.25,838.79,491.25,838.94Z" transform="translate(-125.36 -159.16)"/><path d="M504.17,838.94a11.32,11.32,0,0,1-.18,2.43.41.41,0,0,1-.43.36c-.6,0-1.5,0-2.71-.11s-2.1-.1-2.71-.1-1.42,0-2.55,0l-2.55,0a.27.27,0,0,1-.3-.3q0-1.34.09-4c.06-1.79.09-3.13.09-4s0-2.36-.13-4.24-.13-3.3-.13-4.24c0-.18.1-.27.31-.27s.37,0,.67,0l.68,0,.69,0c.31,0,.53,0,.68,0s.29.08.29.23q0,1.29-.09,3.9c-.07,1.73-.1,3-.1,3.9v1.93c0,.86,0,1.51,0,1.93,0,1.81.07,2.71.22,2.71q4.5,0,6.79-.22l.57-.08a3.08,3.08,0,0,1,.56-.08C504.09,838.71,504.17,838.79,504.17,838.94Z" transform="translate(-125.36 -159.16)"/><path d="M509,841.34c0,.17-.12.25-.36.25l-.67,0c-.3,0-.52,0-.67,0s-.38,0-.68,0l-.67,0c-.21,0-.31-.09-.31-.28,0-.93,0-2.32.13-4.19s.13-3.27.13-4.21-.05-2.26-.13-4.07-.13-3.17-.13-4.07c0-.2.09-.3.28-.3l.71,0c.32,0,.56,0,.72,0s.37,0,.66,0l.66,0c.21,0,.32.08.32.24,0,.91,0,2.28-.1,4.1s-.1,3.19-.1,4.1,0,2.34.1,4.22S509,840.4,509,841.34Z" transform="translate(-125.36 -159.16)"/><path d="M523.07,839.14a2.13,2.13,0,0,1-.1.56c-.07.31-.11.5-.13.56,0,.29-.08.72-.17,1.28a.29.29,0,0,1-.32.22,2.75,2.75,0,0,1-.46,0,36.64,36.64,0,0,0-4.65-.22c-.6,0-1.49,0-2.69,0s-2.09.05-2.69.05c-.26,0-.4-.12-.4-.35q0-1.37.15-4.11c.11-1.83.16-3.2.16-4.11s0-2.65-.15-5.19c0-.65-.06-1.62-.13-2.91l0-.17c0-.19.1-.28.32-.28.57,0,1.43,0,2.56,0s2,0,2.57,0,1.36,0,2.45,0,1.9,0,2.44,0,.59.11.63.35a18,18,0,0,1,.25,2c0,.19-.09.28-.27.28-.69,0-1.74,0-3.14-.11s-2.46-.12-3.17-.12a1.91,1.91,0,0,0-1.26.27,2.1,2.1,0,0,0-.26,1.33v1.82a6.49,6.49,0,0,0,0,.87c.08.25.29.37.64.37h.83c1.59,0,3,0,4.3-.08.49,0,1.08-.06,1.75-.13.17,0,.26.06.26.22a12,12,0,0,1-.09,1.2,12,12,0,0,0-.09,1.21c0,.14-.13.22-.37.22l-1.09-.09c-.45-.05-1.48-.07-3.07-.07-1.35,0-2.2,0-2.55,0a.54.54,0,0,0-.56.51c0-.06,0,.26,0,.94v1.81c0,.84.13,1.37.39,1.58a2.67,2.67,0,0,0,1.52.26h1.35c.57,0,2.16-.1,4.79-.29l.19,0C523,838.82,523.07,838.92,523.07,839.14Z" transform="translate(-125.36 -159.16)"/><path d="M538.16,841.49c0,.07-.07.1-.2.1l-.7,0c-.32,0-.56,0-.71,0s-.43,0-.77,0l-.76,0a.46.46,0,0,1-.43-.3q-.39-.84-2.22-5.14a1,1,0,0,0-.89-.54h-1.11c-1.12,0-1.79,0-2,0s-.26.23-.26.62c0,.57,0,1.42.08,2.56s.08,2,.08,2.54c0,.17-.08.26-.24.26a6.64,6.64,0,0,1-.74-.06c-.33,0-.58-.05-.75-.05s-.35,0-.64,0l-.63,0c-.21,0-.31-.09-.31-.28,0-.9,0-2.26.13-4.07s.13-3.17.13-4.07q0-3.85-.28-8.23v-.19c0-.17.16-.25.51-.25.7,0,1.75,0,3.14,0s2.44-.06,3.13-.06a6.77,6.77,0,0,1,4.35,1.3,4.87,4.87,0,0,1,1.81,4,6.87,6.87,0,0,1-.49,2.84,5.51,5.51,0,0,1-1.91,2.09c-.15.11-.23.21-.23.31s.49,1.19,1.46,3.24A34.43,34.43,0,0,1,538.16,841.49Zm-3.35-11.07c0-1.47-.42-2.46-1.27-2.95a7.21,7.21,0,0,0-3.38-.55c-1.32,0-2,.11-2,.32-.06.44-.09,1.61-.09,3.52v2.34l.16,0,.72.07c.78,0,1.61.06,2.51.06Q534.81,833.27,534.81,830.42Z" transform="translate(-125.36 -159.16)"/><path d="M553.81,824.73c0,.95,0,2.36-.12,4.25s-.11,3.29-.11,4.24c0,.31,0,.77,0,1.38s0,1.08,0,1.38a9.25,9.25,0,0,1-.47,3.54,4,4,0,0,1-2.85,2.05,15.56,15.56,0,0,1-3.65.33c-2.85,0-4.71-.47-5.6-1.42-.69-.73-1-2.2-1-4.39,0-.27,0-.72,0-1.36s0-1.15,0-1.51q0-1.44-.12-5.31c0-.67,0-1.67-.12-3,0-.1,0-.17,0-.2s.11-.25.32-.25h2.7c.19,0,.28.07.28.22,0,1.24,0,3.1-.08,5.58s-.08,4.34-.08,5.58a3.47,3.47,0,0,0,.94,2.84,4.88,4.88,0,0,0,3,.66,5.33,5.33,0,0,0,2.79-.54,2.74,2.74,0,0,0,1-2.51q0-1.94-.06-5.79c0-2.58-.06-4.51-.06-5.8,0-.13.12-.21.35-.24a4.47,4.47,0,0,1,.74,0l.53,0c.15,0,.37,0,.67,0l.66,0C553.71,824.47,553.81,824.56,553.81,824.73Z" transform="translate(-125.36 -159.16)"/><path d="M571.68,824.73c0,.94,0,2.35-.1,4.24s-.1,3.3-.1,4.25,0,2.21,0,4,0,3.1,0,4c0,.27-.1.4-.3.4l-.55,0a4.79,4.79,0,0,0-.55,0,5.67,5.67,0,0,0-.6,0l-.6,0c-.14,0-.32-.13-.52-.4q-2.64-3.56-8-10.6c-.55-.71-.87-1.11-1-1.19s-.12.16-.12.5q0,1.88.06,5.64c0,2.51.06,4.4.06,5.65,0,.27-.08.4-.25.4l-.63,0c-.29,0-.5,0-.64,0s-.36,0-.65,0l-.65,0c-.21,0-.31-.08-.31-.24,0-.9,0-2.25.13-4.05s.13-3.15.13-4.06,0-2.76-.11-5.32q0-1-.12-3l0-.16c0-.12.09-.19.3-.2.53,0,.94,0,1.24,0a6.14,6.14,0,0,0,.65-.09,3.79,3.79,0,0,1,.64-.08c.07,0,.19.12.37.36q2.82,3.85,8.6,11.47c.17.21.33.4.47.55a18,18,0,0,0,.09-2.34c0-1.06,0-2.65-.12-4.76s-.11-3.7-.11-4.75c0-.27.08-.4.24-.4l.67,0c.29,0,.52,0,.66,0s.39,0,.7,0l.69,0A.23.23,0,0,1,571.68,824.73Z" transform="translate(-125.36 -159.16)"/><path d="M589.21,841c0,.18-.09.27-.31.27a2.87,2.87,0,0,1-.88-.35,6.74,6.74,0,0,1-.9-.49A9.22,9.22,0,0,1,581.8,842a7.48,7.48,0,0,1-5.91-2.69,9.14,9.14,0,0,1-2.2-6.19,9.33,9.33,0,0,1,2.16-6.27,7.46,7.46,0,0,1,5.95-2.69,7.9,7.9,0,0,1,3.62.89,7.26,7.26,0,0,1,2.78,2.42.73.73,0,0,1,.15.35c0,.12-.29.49-.87,1.13s-.92,1-1,1a3.51,3.51,0,0,1-.74-.74,7.36,7.36,0,0,0-1.49-1.38,4.08,4.08,0,0,0-2.32-.75,4.57,4.57,0,0,0-3.78,1.93,7,7,0,0,0,0,8.28,4.6,4.6,0,0,0,3.78,1.94,7.38,7.38,0,0,0,4.1-1.22l-.21-2.32a22.87,22.87,0,0,1-.15-2.31q0-.21.27-.21c.16,0,.39,0,.7,0l.69,0c.16,0,.39,0,.71,0s.56,0,.71,0,.26.13.26.39,0,.71,0,1.29,0,1,0,1.28c0,1.17.08,2.76.24,4.76Z" transform="translate(-125.36 -159.16)"/></svg>