<svg id="Ebene_1" data-name="Ebene 1" xmlns="http://www.w3.org/2000/svg" viewBox="0 0 757.51 719.45"><defs><style>.cls-1,.cls-8{fill:#fbb03b;}.cls-2{fill:#2e3a4d;}.cls-3{fill:#fcee21;}.cls-4{fill:none;}.cls-4,.cls-6,.cls-8{stroke:#2e3a4d;stroke-miterlimit:10;}.cls-4,.cls-6{stroke-width:17px;}.cls-5,.cls-6{fill:#039be5;}.cls-7{fill:#fff;}.cls-8{stroke-width:7px;}.cls-9{font-size:25px;font-family:BerlinSansFB-Reg, Berlin Sans FB;}</style></defs><title>weebo</title><path class="cls-1" d="M500,721.5a221.24,221.24,0,0,1-220.89-205c-.41-5.42-.61-11-.61-16.49a221.5,221.5,0,1,1,443,0c0,5.93-.24,11.92-.71,17.81A221.38,221.38,0,0,1,500,721.5Z" transform="translate(-121.83 -127.22)"/><path class="cls-2" d="M500,287A212.78,212.78,0,0,1,713,500c0,5.7-.23,11.47-.69,17.14a213,213,0,0,1-424.73-1.29c-.38-5.21-.58-10.54-.58-15.85A212.87,212.87,0,0,1,500,287m0-17A229.77,229.77,0,0,0,270,500q0,8.64.63,17.11a230,230,0,0,0,458.63,1.38q.74-9.15.74-18.49A229.86,229.86,0,0,0,500,270Z" transform="translate(-121.83 -127.22)"/><path class="cls-3" d="M501,582.5A412.87,412.87,0,0,1,334.77,548a408.33,408.33,0,0,1-62.21-33.83,404.89,404.89,0,0,1-80.65-70.3c21.41-13.82,49.14-21.39,78.59-21.39,4.76,0,9.34.21,13.6.61l2.67.26.94-2.52A226.66,226.66,0,0,1,393.6,300l4.44-2.37-3.77-3.34c-6.57-5.83-9.77-13.94-9.77-24.79,0-43.56,51.59-79,115-79s115,35.44,115,79c0,10.67-3.09,18.68-9.44,24.49l-3.67,3.35,4.39,2.32A226.63,226.63,0,0,1,712.29,420.85l.94,2.52,2.67-.26c4.27-.4,8.84-.61,13.6-.61,30.12,0,58.3,7.87,79.85,22.22a405,405,0,0,1-82,70.84,408.71,408.71,0,0,1-61.81,33.19A412.9,412.9,0,0,1,501,582.5Z" transform="translate(-121.83 -127.22)"/><path class="cls-2" d="M499.5,194c30.24,0,58.57,8.14,79.79,22.91C599.74,231.15,611,249.82,611,269.5c0,9.64-2.72,16.8-8.3,21.9l-7.34,6.71,8.79,4.65A223.11,223.11,0,0,1,709,422.08l1.88,5,5.35-.51c4.15-.4,8.61-.6,13.26-.6,27.86,0,54,6.86,74.51,19.45a401.17,401.17,0,0,1-78.58,67.18,404.89,404.89,0,0,1-61.28,32.91,414.45,414.45,0,0,1-328-.73,404.46,404.46,0,0,1-61.68-33.54,401.42,401.42,0,0,1-77.2-66.6c20.33-12.08,46-18.67,73.21-18.67,4.65,0,9.11.2,13.26.6l5.35.51,1.88-5a223.11,223.11,0,0,1,104.25-119l8.89-4.74-7.54-6.68c-5.78-5.12-8.59-12.38-8.59-22.17,0-19.68,11.26-38.35,31.71-52.59C440.93,202.14,469.26,194,499.5,194m0-7C434.05,187,381,223.94,381,269.5c0,12.38,3.92,21.18,10.95,27.41A230.77,230.77,0,0,0,284.43,419.63c-4.29-.41-8.93-.63-13.93-.63-32.75,0-62.39,9.25-83.83,24.19a408.33,408.33,0,0,0,84,73.92,411.27,411.27,0,0,0,62.74,34.12,421.48,421.48,0,0,0,333.55.74,411.11,411.11,0,0,0,62.34-33.48,408.37,408.37,0,0,0,85.31-74.42C793,428.61,762.88,419,729.5,419c-5,0-9.64.22-13.93.63A230.82,230.82,0,0,0,607.42,296.57c6.8-6.21,10.58-14.9,10.58-27.07,0-45.56-53-82.5-118.5-82.5Z" transform="translate(-121.83 -127.22)"/><path class="cls-2" d="M500,287A212.78,212.78,0,0,1,713,500c0,5.7-.23,11.47-.69,17.14a213,213,0,0,1-424.73-1.29c-.38-5.21-.58-10.54-.58-15.85A212.87,212.87,0,0,1,500,287m0-17A229.77,229.77,0,0,0,270,500q0,8.64.63,17.11a230,230,0,0,0,458.63,1.38q.74-9.15.74-18.49A229.86,229.86,0,0,0,500,270Z" transform="translate(-121.83 -127.22)"/><path class="cls-4" d="M583,595.16c-7.11,1.45-14.65,2.72-22.56,3.78a470.17,470.17,0,0,1-120.71-.08c-8-1.09-15.57-2.38-22.71-3.86" transform="translate(-121.83 -127.22)"/><path class="cls-5" d="M476.87,303.54c-35.38,0-65.76-1-79.27-13-5.53-4.9-8.1-11.59-8.1-21.06,0-19.17,11-37.41,31.06-51.36,21-14.6,49-22.64,78.94-22.64s58,8,78.94,22.64c20,14,31.06,32.19,31.06,51.36,0,9.32-2.48,15.93-7.81,20.79-13.38,12.26-44,13.25-79.58,13.25l-11,0-11.64,0-11.65,0Z" transform="translate(-121.83 -127.22)"/><path class="cls-2" d="M499.5,204c28.21,0,54.52,7.5,74.08,21.12C591.26,237.43,601,253.19,601,269.5c0,8.78-2.7,12.37-5.06,14.53-12,11-49.22,11-73.83,11l-10.95,0-11.66,0-11.68,0-10.95,0c-24.46,0-61.42,0-73.64-10.85C400.79,282,398,278.41,398,269.5c0-16.31,9.74-32.07,27.42-44.38C445,211.5,471.29,204,499.5,204m0-17C434.05,187,381,223.94,381,269.5c0,12.38,3.92,21.18,10.95,27.41,15.76,14,47.13,15.13,84.92,15.13,7.32,0,14.89,0,22.63,0s15.29,0,22.61,0c38.09,0,69.67-1.15,85.31-15.47,6.8-6.21,10.58-14.9,10.58-27.07,0-45.56-53-82.5-118.5-82.5Z" transform="translate(-121.83 -127.22)"/><path class="cls-5" d="M729.5,575.5a132.89,132.89,0,0,1-14.11-.7c-28.28-3-36.51-15.41-40.54-25.88-4.94-12.81-5.35-29.74-5.35-47.42,0-19.47.53-38,6.93-51.07,4.07-8.31,12.65-19.68,40-22.34,4.08-.39,8.5-.59,13.1-.59,30.58,0,59,8.34,80.11,23.47,19.28,13.84,29.89,31.78,29.89,50.53,0,19.17-11,37.41-31.06,51.36C787.47,567.46,759.43,575.5,729.5,575.5Z" transform="translate(-121.83 -127.22)"/><path class="cls-2" d="M729.5,436c28.4,0,55.79,8,75.16,21.88,17,12.2,26.34,27.69,26.34,43.62,0,16.31-9.74,32.07-27.42,44.38C784,559.5,757.71,567,729.5,567a125,125,0,0,1-13.23-.65c-23.54-2.51-30.13-11.76-33.49-20.5-4.41-11.43-4.78-27.5-4.78-44.35,0-18.43.46-35.92,6.06-47.33,3.45-7,10.34-15.39,33.13-17.62,3.84-.36,8-.55,12.31-.55m0-17c-5,0-9.64.22-13.93.63C663.6,424.7,661,459.42,661,501.5c0,19,.53,36.51,5.92,50.47,6.42,16.71,19.8,28.32,47.55,31.28a139.48,139.48,0,0,0,15,.75C795,584,848,547.06,848,501.5c0-22.32-12.73-42.57-33.43-57.43C793,428.61,762.88,419,729.5,419Z" transform="translate(-121.83 -127.22)"/><path class="cls-5" d="M270.5,575.5c-29.93,0-58-8-78.94-22.64-20-14-31.06-32.19-31.06-51.36s11-37.39,31-51.34c21-14.61,49-22.66,79-22.66,4.6,0,9,.2,13.12.59,27.3,2.66,35.88,14,39.95,22.34,6.4,13.05,6.93,31.6,6.93,51.07,0,17.39-.39,34-5.1,46.78-4,10.74-12.19,23.46-40.77,26.52A133.56,133.56,0,0,1,270.5,575.5Z" transform="translate(-121.83 -127.22)"/><path class="cls-2" d="M270.5,436c4.33,0,8.47.19,12.28.55,22.82,2.23,29.71,10.59,33.16,17.62,5.6,11.41,6.06,28.9,6.06,47.33,0,16.59-.35,32.42-4.58,43.84-3.47,9.41-10,18.47-33.73,21a123.7,123.7,0,0,1-13.19.65c-28.21,0-54.52-7.5-74.08-21.12C178.74,533.57,169,517.81,169,501.5s9.73-32.05,27.39-44.36C216,443.51,242.27,436,270.5,436m0-17c-32.75,0-62.39,9.25-83.83,24.19S152,478.73,152,501.5c0,45.56,53.05,82.5,118.5,82.5a139.48,139.48,0,0,0,15-.75c28.15-3,41.52-14.91,47.84-32,5.12-13.83,5.63-31.05,5.63-49.73,0-42.08-2.6-76.8-54.57-81.87-4.29-.41-8.93-.63-13.93-.63Z" transform="translate(-121.83 -127.22)"/><path class="cls-5" d="M500.5,804.5c-29.93,0-58-8-78.94-22.64-20-14-31.06-32.19-31.06-51.36,0-17.47,8.94-28.36,29-35.3,22.25-7.71,55-8.7,81-8.7s58.76,1,81,8.7c20,6.94,29,17.83,29,35.3,0,19.17-11,37.41-31.06,51.36C558.46,796.46,530.43,804.5,500.5,804.5Z" transform="translate(-121.83 -127.22)"/><path class="cls-2" d="M500.5,695c25.37,0,57.18.94,78.23,8.23C599.18,710.31,602,720.52,602,730.5c0,16.31-9.74,32.07-27.42,44.38C555,788.5,528.71,796,500.5,796s-54.52-7.5-74.08-21.12C408.74,762.57,399,746.81,399,730.5c0-10,2.82-20.19,23.27-27.27,21.05-7.29,52.86-8.23,78.23-8.23m0-17c-65.45,0-118.5,6.94-118.5,52.5S435.05,813,500.5,813,619,776.06,619,730.5,566,678,500.5,678Z" transform="translate(-121.83 -127.22)"/><circle class="cls-6" cx="379.17" cy="315.78" r="76"/><circle class="cls-2" cx="378.17" cy="315.78" r="47"/><circle class="cls-7" cx="354.17" cy="288.78" r="33"/><circle class="cls-7" cx="393.67" cy="328.28" r="19.5"/><path class="cls-8" d="M577,474c0,42-34,56-76,56s-76-14-76-56,34-6,76-6S577,432,577,474Z" transform="translate(-121.83 -127.22)"/><text class="cls-9" transform="translate(326.36 49.37)">ANALYSE</text><text class="cls-9" transform="translate(21.06 445.85) rotate(-90)">EVALUATION</text><text class="cls-9" transform="translate(736.44 290.42) rotate(90)">SPEZIFIKATION</text><text class="cls-9" transform="translate(288.3 714.37)">MODELLIERUNG</text><text x="-121.83" y="-127.22"/></svg>