<?xml version="1.0" standalone="no"?>
<!DOCTYPE svg PUBLIC "-//W3C//DTD SVG 20010904//EN"
 "http://www.w3.org/TR/2001/REC-SVG-20010904/DTD/svg10.dtd">
<svg version="1.0" xmlns="http://www.w3.org/2000/svg"
 width="696.000000pt" height="696.000000pt" viewBox="0 0 696.000000 696.000000"
 preserveAspectRatio="xMidYMid meet">
<metadata>
Created by potrace 1.11, written by Peter Selinger 2001-2013
</metadata>
<g transform="translate(0.000000,696.000000) scale(0.100000,-0.100000)"
fill="#000000" stroke="none">
<path d="M3265 6604 c-471 -71 -813 -292 -940 -609 -23 -58 -29 -89 -33 -181
-5 -130 9 -188 63 -259 l34 -44 -57 -32 c-412 -232 -771 -632 -964 -1074 l-48
-110 -187 -6 c-137 -5 -214 -12 -283 -28 -292 -66 -496 -173 -663 -351 -253
-269 -251 -624 4 -895 163 -171 393 -291 666 -346 79 -16 159 -23 296 -26 137
-4 187 -9 187 -18 0 -28 157 -325 226 -428 199 -293 476 -553 767 -716 53 -30
57 -35 43 -50 -8 -9 -27 -43 -43 -76 -35 -77 -43 -214 -19 -319 72 -307 410
-569 848 -658 96 -20 144 -23 323 -23 179 0 227 3 323 23 438 89 776 351 848
658 24 105 16 242 -19 319 -16 33 -35 67 -44 77 -9 10 -14 20 -12 22 2 2 27
16 54 31 284 160 562 422 759 712 69 103 226 400 226 428 0 9 50 14 188 18
274 7 454 48 657 149 249 125 432 327 480 529 19 82 19 206 0 288 -48 203
-236 410 -480 530 -207 102 -376 141 -638 150 l-187 6 -48 110 c-178 407 -486
768 -862 1012 -53 34 -112 69 -132 79 l-36 17 33 43 c54 70 68 129 63 258 -4
92 -10 123 -33 181 -115 287 -394 489 -810 586 -73 17 -130 21 -305 24 -118 2
-228 1 -245 -1z m-564 -1220 c135 -24 547 -37 969 -30 383 6 502 14 633 41
l69 14 86 -43 c306 -154 595 -414 795 -716 60 -90 207 -369 207 -392 0 -5 -6
-8 -12 -8 -7 0 -41 -13 -75 -29 -153 -73 -241 -214 -272 -436 -15 -105 -15
-539 0 -641 7 -43 12 -88 13 -98 1 -15 -19 -27 -92 -57 -315 -129 -712 -228
-1082 -271 -155 -18 -745 -18 -900 0 -376 44 -778 145 -1094 276 -82 34 -101
45 -99 61 1 11 7 57 14 103 7 53 9 184 7 365 -4 249 -8 291 -27 362 -45 166
-120 268 -243 330 -39 19 -77 35 -84 35 -8 0 -14 3 -14 8 0 4 31 70 69 147
169 346 412 627 723 836 119 80 288 170 309 163 9 -2 54 -11 100 -20z"/>
<path d="M3337 4885 c-484 -92 -790 -572 -667 -1049 11 -44 20 -98 20 -120 0
-65 27 -174 60 -243 97 -209 373 -333 740 -333 367 0 643 124 740 333 33 69
60 178 60 243 0 22 10 76 22 120 30 113 30 316 -1 429 -79 293 -317 530 -606
605 -106 28 -266 34 -368 15z m40 -265 c62 -26 135 -100 165 -167 34 -74 31
-199 -5 -274 -32 -66 -98 -131 -165 -162 -36 -16 -67 -21 -132 -22 -73 0 -93
4 -141 28 -223 109 -253 402 -57 560 86 69 226 85 335 37z m331 -515 c20 -9
48 -26 61 -38 31 -29 61 -94 61 -134 0 -30 -3 -32 -57 -48 -101 -29 -186 -45
-251 -45 -58 0 -63 2 -72 26 -14 37 -12 89 5 132 42 100 155 148 253 107z"/>
</g>
</svg>
